<svg xmlns="http://www.w3.org/2000/svg" viewBox="0 0 106.92 152.7"><defs><style>.cls-1{fill:#333;}</style></defs><title>Logo Rope up</title><g id="Calque_2" data-name="Calque 2"><g id="Calque_1-2" data-name="Calque 1"><path class="cls-1" d="M35.9,13l.08.36,1.18-.07,7.18-.45,3.6-.22.9,0,.22.06h0l.09-.08.45,0h1.8l7.2.08c4.76,0,9.59.17,14.37.26s9.63.13,14.34.36c1.18.06,2.36.13,3.52.22l3.59.29,3.59.29,1.79.14.9.07h0L101,15c.11.27.21.52.3.78s.15.47.23.77a34.15,34.15,0,0,1,.78,3.36c.42,2.28.67,4.65.87,7l.49,7.18.42,7.16.4,7.17.27,7.19c.19,4.79.45,9.6.57,14.37s.11,9.58,0,14.37-.21,9.58-.61,14.36a.24.24,0,0,0,.47,0c.6-4.77,1-9.57,1.22-14.37s.42-9.61.48-14.42,0-9.6-.06-14.41l-.07-7.2-.22-7.21-.24-7.22L106,26.73a73,73,0,0,0-.73-7.33c-.19-1.22-.43-2.44-.74-3.66-.07-.28-.17-.64-.27-1s-.21-.62-.32-.91l-.32-.85-.14-.4-.07-.17a2,2,0,0,0-.19-.36,2.1,2.1,0,0,0-.63-.63,2.36,2.36,0,0,0-.72-.3l-.29-.05h-.13l-.45,0-.89-.09-1.79-.19-3.58-.37L91.18,10c-1.24-.14-2.45-.24-3.66-.33-4.87-.32-9.64-.39-14.44-.58s-9.57-.35-14.41-.47l-7.2-.2-1.8,0-.45,0h-.58l-.9,0-3.59.11-4,.13Zm64.2.76h0Zm.38,0v0Z"/><path class="cls-1" d="M104.4,109c0-.6-.17-.65-.49-.55-.12,0-.21.4-.21.4-2.54,8.43-16.6,7.83-16.6,7.83h-12a4.74,4.74,0,0,0-.62.2,2.51,2.51,0,0,0-1.34.94,1.88,1.88,0,0,0-.25.4l-.12.22-.24.4-.48.8L68.23,126l-3.84,6.38c-1.28,2.11-2.54,4.36-3.73,6.46s-2.52,4.21-3.82,6.32l-1.93,3.12-.1-.15c-.16-.24-.31-.47-.45-.7s-.27-.47-.37-.68l-.41-.85c-.57-1.14-1.18-2.26-1.79-3.36-1.24-2.2-2.49-4.33-3.74-6.48-2.51-4.28-5-8.54-7.39-12.85L38.93,120l-.85-1.64-.21-.41a2.92,2.92,0,0,0-.19-.34,4,4,0,0,0-.36-.5,2.94,2.94,0,0,0-1.26-.82,2.68,2.68,0,0,0-.6-.14l-.27,0H35c-2.57-.1-5-.14-7.5-.2l-14.86-.33c-1.24,0-2.44-.07-3.61-.14-.52,0-1.08-.12-1.69-.21l-.94-.14-.27,0a1.13,1.13,0,0,1-.06-.14c-.06-.14-.09-.23-.11-.28s0,0,0,0l0-.2-.19-.9c-.13-.59-.23-1.13-.31-1.68s-.14-1.16-.2-1.75C5,107.7,5,105.26,5,102.86l.08-7.44,0-3.72c0-1.2.05-2.44.08-3.67.07-2.47.16-5,.15-7.51L5,65.59a2.52,2.52,0,0,0-.06-.48c0-4.63,0-9.26-.08-13.86V44.06c0-2.39,0-4.83,0-7.12.14-4.61.7-9.23,2.51-13.08a14.64,14.64,0,0,1,3.68-4.95,17.35,17.35,0,0,1,5.47-3.13,40.25,40.25,0,0,1,11-2.09l1.27-1.76,2.23-3-1.25,0A48.69,48.69,0,0,0,14.9,11.35,25.43,25.43,0,0,0,11.29,13,21.07,21.07,0,0,0,8,15.33a19.63,19.63,0,0,0-4.87,6.49A28.6,28.6,0,0,0,.79,29.29a52,52,0,0,0-.72,7.5C0,39.3,0,41.66,0,44.07l0,7.2L.1,65.66h0a2.25,2.25,0,0,0,.08.58L.59,80.54c0,2.42,0,4.88-.11,7.37,0,1.25-.06,2.49-.06,3.77l0,3.72,0,7.44c0,2.55.1,5.08.37,7.66.07.65.15,1.28.25,2s.24,1.36.37,2l.21.91.06.25c0,.16.08.31.12.43a5.81,5.81,0,0,0,.23.58A5.28,5.28,0,0,0,2.75,118a3.91,3.91,0,0,0,1.72,1.24,4.68,4.68,0,0,0,1,.22l.43,0,.9.12c.62.09,1.29.18,2,.23,1.3.07,2.58.08,3.82.11l14.89.18c2.32,0,4.67.05,6.94.12h0l.88,1.65,1.81,3.31c2.44,4.36,5,8.62,7.57,12.87,1.26,2.12,2.55,4.26,3.77,6.37.6,1.06,1.19,2.12,1.73,3.19l.41.82c.18.34.35.64.53.95s.37.58.56.86l.29.41.2.26.22.27a7,7,0,0,0,1,.87l.17.13.16.1a2.54,2.54,0,0,0,.67.3,2.45,2.45,0,0,0,1.84-.17,3,3,0,0,0,1-.78l.34-.45c.21-.29.42-.6.61-.91L60,147.1c1.29-2.12,2.58-4.25,3.83-6.44s2.38-4.32,3.65-6.45l3.79-6.4,3.79-6.4.61-1h.64l3.72,0,7.26-.06C101.45,120,104.36,110.54,104.4,109ZM5.93,115Zm48.31,34.25v0Zm1.43-.14h0S55.69,149.12,55.67,149.1Z"/><path class="cls-1" d="M20.23,57.28V53.77l-.7.34C17.7,55.07,15.87,56,14,57c-1.3.67-2.3,0-2.3-1.46,0-2.82,0-5.63,0-8.45a1.76,1.76,0,0,1,1.06-1.74c2.3-1.18,4.57-2.41,6.87-3.57a1,1,0,0,0,.64-1.09q0-8.64,0-17.28c0-1.48.45-2,1.86-2q6.69,0,13.38,0c1.39,0,1.86.49,1.86,2v9L38.3,32c4.57-2.4,9.15-4.78,13.71-7.2a2.09,2.09,0,0,1,2.08,0Q75,35,96,45.27a1.91,1.91,0,0,1,1.2,2c0,2.73,0,5.47,0,8.2,0,1.58-.94,2.2-2.31,1.55l-3.1-1.51s-.1,0-.26,0v2.73c0,1.58-.44,2-1.94,2h-.87v6c.44,0,.87,0,1.29,0a1.42,1.42,0,0,1,1.51,1.52q0,4.41,0,8.84A1.48,1.48,0,0,1,90,78.2c-.4,0-.81,0-1.26,0v6c.37,0,.74,0,1.11,0,1.17,0,1.7.58,1.71,1.82q0,4.19,0,8.36c0,1.22-.53,1.75-1.67,1.77H88.75v3H90a1.46,1.46,0,0,1,1.52,1.52c0,1,0,1.92,0,2.87a1.47,1.47,0,0,1-1.47,1.58c-.16,0-.31,0-.46,0H19.06c-1.14,0-1.65-.58-1.66-1.79,0-2.79,0-5.57,0-8.36,0-1.25.52-1.78,1.73-1.8h1.09v-6H19a1.46,1.46,0,0,1-1.56-1.56c0-3,0-5.89,0-8.84a1.44,1.44,0,0,1,1.5-1.54c.42,0,.85,0,1.31,0v-6H19A1.51,1.51,0,0,1,17.4,67.5q0-4.26,0-8.52A1.49,1.49,0,0,1,19,57.28Zm74.16-3.85c0-1.69,0-3.25,0-4.81a1.1,1.1,0,0,0-.71-1.2q-20-9.73-40-19.53a1.3,1.3,0,0,0-1.33,0q-9.26,4.87-18.53,9.72T15.2,47.4a1,1,0,0,0-.65,1.09c0,.92,0,1.86,0,2.78v2.08l1-.52q18.06-9.46,36.11-18.94a2.62,2.62,0,0,1,2.64,0Q73.9,43.46,93.47,53ZM60.24,66.29V99H74.38V87.15H73.14a1.5,1.5,0,1,1,0-3c.42,0,.84,0,1.25,0V66.29ZM30,63.22H79a14,14,0,0,1-1.25-2.17,1.07,1.07,0,0,0-1.22-.81q-22.08,0-44.15,0a2.47,2.47,0,0,0-.61,0,.66.66,0,0,0-.39.28C30.92,61.43,30.46,62.33,30,63.22Zm4.59,3.08v8.86H48.72V66.3ZM57.3,90.14v-3H39.36c-2.43,0-4.86,0-7.29,0-.22,0-.56.06-.65.22-.52.91-1,1.86-1.45,2.76Zm0,6H51.74c-6.51,0-13,0-19.53,0-.27,0-.68.06-.79.25-.52.88-1,1.81-1.41,2.7H57.3ZM23.19,37.88v2c3.73-2,7.37-3.85,11-5.78.17-.09.26-.34.55-.73-.7,0-1.15,0-1.6,0a1.44,1.44,0,0,1-1.47-1.57c0-.93,0-1.86,0-2.78a1.46,1.46,0,0,1,1.58-1.61h1.22V24.47H28.81v3.21c0,2.55-.18,2.73-2.65,2.73h-3v3h1.17c2.36,0,2.67.34,2.58,2.81a1.52,1.52,0,0,1-1.62,1.68ZM53,39.56c-.8.42-1.48.8-2.19,1.12a1,1,0,0,0-.64,1.08c0,3.9,0,7.8,0,11.69,0,.26,0,.52,0,.81H53ZM34.58,78.25v2.86H48.73V78.25ZM55.94,40.92V54.26h2.72a.68.68,0,0,0,.07-.2c0-3.8,0-7.59,0-11.39a.74.74,0,0,0-.3-.54C57.64,41.71,56.83,41.35,55.94,40.92ZM47.3,54.26V42.56c-.82.42-1.55.83-2.31,1.18a.87.87,0,0,0-.51.93c0,3,0,5.95,0,8.92,0,.23,0,.45.06.67Zm17.06,0a1,1,0,0,0,.09-.25c0-2.86,0-5.73,0-8.59,0-.16-.08-.41-.19-.46-.85-.44-1.71-.84-2.58-1.26V54.31H64A2,2,0,0,0,64.36,54.26ZM80.15,94.61a2.84,2.84,0,1,0,2.82-3A2.9,2.9,0,0,0,80.15,94.61Zm0-27a2.84,2.84,0,1,0,2.92-2.91A2.93,2.93,0,0,0,80.15,67.65ZM28.8,58.76a2.84,2.84,0,1,0-2.82,3A2.92,2.92,0,0,0,28.8,58.76Zm0,9a2.84,2.84,0,1,0-2.84,3A2.93,2.93,0,0,0,28.8,67.75Zm0,26.89a2.84,2.84,0,1,0-2.86,3A2.91,2.91,0,0,0,28.8,94.64ZM26,73.73a3,3,0,1,0,2.84,3A2.86,2.86,0,0,0,26,73.73ZM28.8,85.67a2.84,2.84,0,1,0-2.85,3A2.88,2.88,0,0,0,28.8,85.67Zm57,0a2.84,2.84,0,1,0-2.84,3A2.88,2.88,0,0,0,85.82,85.66Zm-5.67-9A2.84,2.84,0,1,0,83,73.71,2.88,2.88,0,0,0,80.15,76.65Zm5.67-17.91a2.84,2.84,0,1,0-2.81,3A2.91,2.91,0,0,0,85.82,58.74ZM41.59,54.27V45.55c-.78.4-1.47.8-2.18,1.12a.93.93,0,0,0-.62,1c0,2,0,3.93,0,5.89,0,.23,0,.46,0,.69Zm28.55,0c0-2.11,0-4.17,0-6.23a.45.45,0,0,0-.17-.33c-.84-.43-1.7-.84-2.61-1.28v7.84ZM51.65,81.12h5.64V78.26H51.65ZM57.3,69.28H51.66v2.87H57.3ZM35.9,48.52,33.28,49.9a.44.44,0,0,0-.18.32c0,1.34,0,2.68,0,4H35.9Zm40,5.75c0-1.18,0-2.29,0-3.39a.65.65,0,0,0-.24-.44c-.82-.42-1.67-.82-2.55-1.25v5.08ZM25.94,24.47H23.19v2.88h2.75ZM88.61,75.09V69.37l-1.69,2.84Zm-68.29,9L22,81.18l-1.71-2.91Zm68.31,9V87.23l-1.71,2.9ZM20.32,60.35v5.81L22,63.25Zm9.93-8.87-2.71,1.43,2.08,1.3c.38.23.63.19.63-.34C30.26,53.14,30.25,52.41,30.25,51.48Zm48.45.44v1.92c0,.59.27.6.68.34s1.09-.72,1.7-1.12ZM79,90.13l-1.69-2.91v2.91ZM22,99.06l-1.68-2.9v2.9Zm55.36-2.89V99H79Zm0-26.84V72.2H79Zm-45.7-.06-1.7,2.9h1.7Zm0,11.88V78.26l-1.7,2.89Zm45.71-2.89v2.91H79Z"/><path class="cls-1" d="M67.25,78.2c-.89,0-1.77,0-2.66,0A1.49,1.49,0,0,1,63,76.56q0-2.86,0-5.73a1.43,1.43,0,0,1,1.53-1.59c1.84,0,3.69,0,5.54,0a1.39,1.39,0,0,1,1.48,1.54c0,1.94,0,3.87,0,5.81A1.46,1.46,0,0,1,70,78.2C69.07,78.22,68.16,78.2,67.25,78.2Zm1.42-3V72.27H65.93v2.89Z"/><path class="cls-1" d="M26.15,20.68a1.88,1.88,0,0,1-1.81-1.33c-.09-.25-1.93-6.32,3-10.35A29.36,29.36,0,0,0,33.5,1a1.91,1.91,0,1,1,3.39,1.74A32.62,32.62,0,0,1,29.73,12c-2.88,2.37-1.8,6.11-1.75,6.27a1.92,1.92,0,0,1-1.26,2.38A2.24,2.24,0,0,1,26.15,20.68Z"/><path class="cls-1" d="M36.42,14.42a1.27,1.27,0,0,1-1.05-1.16A6,6,0,0,1,38.05,8a17.72,17.72,0,0,0,3.86-3.71,1.27,1.27,0,0,1,2,1.52,20.1,20.1,0,0,1-4.54,4.34,3.51,3.51,0,0,0-1.5,3,1.27,1.27,0,0,1-1.18,1.36A1.08,1.08,0,0,1,36.42,14.42Z"/></g></g></svg>