<svg xmlns="http://www.w3.org/2000/svg" viewBox="0 0 366.62 152.7"><defs><style>.cls-1{fill:#333;}</style></defs><title>Fichier 3</title><g id="Calque_2" data-name="Calque 2"><g id="Calque_1-2" data-name="Calque 1"><path class="cls-1" d="M129.25,15.37a11.51,11.51,0,0,1,3.47.37,11.79,11.79,0,0,1,2.85.75A21.46,21.46,0,0,1,143,21.08a45,45,0,0,1,3.6,3.72,44.8,44.8,0,0,1,4.59,11.42A39.52,39.52,0,0,1,152,44a69.82,69.82,0,0,1-.5,7.44,24.58,24.58,0,0,1-4,10.67c-2.48,3.6-5.21,8.69-14.77,10.55l.37.38a18.82,18.82,0,0,1,1.86,2.6,19.77,19.77,0,0,0,2.61,3.23,20.13,20.13,0,0,1,2.36,3.22A14.2,14.2,0,0,0,141.66,85l.24.62c.62.87,1.12,2,3,4.84,2.48,4.22,3.72,6.33,5.09,9.18l.37.87a41.72,41.72,0,0,1,2.73,6.33,2.08,2.08,0,0,1-3.35,1.61c-1.12-2.35-2.36-5.33-2.36-5.33-1.24-2.73-3.22-6.46-4.84-9.31a37.85,37.85,0,0,0-2.85-4.1l-1.49-2.48A12.4,12.4,0,0,0,136,83.87l-.5-.49-1-1.37a3.18,3.18,0,0,0-1.12-1.86,33.17,33.17,0,0,1-2.73-3.48v25.2c0,1,.12,1.86.12,3,.13.75.5,2.24-.24,3.36-1.12,1.61-2.49,1.24-3.73-.87l.13-3.73v-1.86c0-.74-.13-1.36-.13-2.36-.12-5.83-.12-16-.12-20.84,0-1.62-.12-3.11-.25-4.72,0-.62-.12-1.49-.12-2.23-.13-1.62-.13-3.85-.13-5.46,0-.5-.12-.87-.12-1.37V63.52c-.13-1.49-.13-3.47-.13-5,0-1.74,0-4.22.25-6.71v-2.6c0-2,.13-3.72.25-5.71.13-2.73.25-6.33.25-9.18V32.87c0-.62.12-1.12.12-1.62V29l-.24-3.6c-.13-1.24-.13-3.1-.13-4.47v-3.6C126.39,15.87,128.25,15.37,129.25,15.37Zm1.36,18.12-.37,18.74a6.22,6.22,0,0,0-.13,1.49c0,.62-.12,1.11-.12,1.73v5.84c0,.37.12,2.23.25,4.21.12,1.25.25,2.61.25,3.36h.86c.38-.13,1.37-.38,1-.38,5.33-.87,8.93-4.59,11.66-8.43a14.38,14.38,0,0,0,2.73-6.46,14.56,14.56,0,0,1,.62-2.73,25.13,25.13,0,0,1,.25-3l.37-4.22a36.47,36.47,0,0,0-3.47-14.27l-1.61-2.23A21.74,21.74,0,0,0,132,19.34h-1.74Z"/><path class="cls-1" d="M161.88,93.3l-.49-1.86-.38-3.1a108.08,108.08,0,0,1-.86-12.66C160,73.45,160,70.22,160,68a12.17,12.17,0,0,1,.13-2.11,39.12,39.12,0,0,0,.37-4.72V54.09c0-.25.12-.5.12-.75l-.12-3.47L161,37.09a29.14,29.14,0,0,1,1.37-8.19c2.73-5.84,6.58-12.66,13-13.9,4.34-.62,7.2,2.73,9.68,5.71a51.37,51.37,0,0,1,5.09,13.52,76.34,76.34,0,0,1,1,13v2.48c0,.5-.12,1-.12,1.37v6.2l-.38,9.56c0,1.37-.12,3.1-.12,4.59l.12,14.27c-.62,5.09-1.24,10.55-3.72,15.14a20.62,20.62,0,0,1-7.2,7.45l-.86.25c-1.25.12-2.86.49-4.1.62-.25,0-.74-.13-1-.13a7.35,7.35,0,0,1-2.11-.49C165.73,105.84,163,99.14,161.88,93.3Zm3.6-1.49a20.56,20.56,0,0,0,2.86,7.33c1,2.11,2,4,3.6,5.08a7.06,7.06,0,0,0,3.1.75,7.83,7.83,0,0,0,6.7-4,5,5,0,0,1,1-2,11.25,11.25,0,0,1,.75-1.24,24.9,24.9,0,0,0,1.73-4.09,10.31,10.31,0,0,1,.62-2,7.14,7.14,0,0,0,.38-2.61V87.47l.25-6.82.12-9.31c0-4.59,0-9.06.12-12.91,0-2.48.13-7.57.13-9.8a87.07,87.07,0,0,0-1.12-15.39v.12c-.87-3.6-2-7.44-4.22-10.54-1.24-1.12-2-1.74-2.85-2.49l-.75-.49-1.24-.38h.25a5.26,5.26,0,0,1-.62-.12,5.5,5.5,0,0,0-2,0c-1.61,1-3,3-4.22,4.34v-.12l-1,1.36a69.12,69.12,0,0,0-3.23,7.2l-1.11,8.69v7.82l-.5,11.54c0,5-.12,10.55-.12,15.51a23.77,23.77,0,0,1,.12,3v2a46.58,46.58,0,0,0,.75,8.43Z"/><path class="cls-1" d="M202.47,15.24a38.53,38.53,0,0,1,5.83.87l1,.38a12.8,12.8,0,0,1,4.22,1.86c8.69,3.47,12.16,23,11.29,29l-.37,2.73a27.35,27.35,0,0,1-1.74,6.82c-3.35,7.08-4,7.45-8.06,10.18a15.46,15.46,0,0,0-3,1.86,14.21,14.21,0,0,1-6.33,1.61c-.62,0-.12-.12-.87,0,.13,4.35.13,14.4.13,15.52,0,.49,0,2.48-.13,3.84-.12,3.23-.37,7.32-.25,8.44a19.56,19.56,0,0,1,.13,4.59c0,.62-.13,1.49-.13,2.24v1.11c0,.87.25,1.74-.25,2.24-.37.87-1.24.74-2.23.74s-1.61-1.36-1.61-2.85l.25-10.55v-14c.12-1.12.12-2.73.12-4.22a37.42,37.42,0,0,0-.25-5.59v-6L200,61.66l.13-2.36c-.25-2.23-.38-6.7-.38-8.69s-.24-6.57-.24-9.92c0-2.24.12-4.6.24-6.09,0-2.11.25-5.33.25-7.44a9.09,9.09,0,0,0-.12-1.74,35.35,35.35,0,0,1-.13-5.21V18.6a7,7,0,0,1,.13-1.37C200,15.37,201.22,15.12,202.47,15.24Zm1.36,4.47v4.35a60,60,0,0,1,0,6.57c0,1-.12,3-.12,3.85,0,2.11.12,3.48.12,4.72,0,2,0,3.84-.12,7.32l.37,12.66c.12,1.61.12,3.47.12,5,0,1,.13,1.12.13,2.36a8.4,8.4,0,0,0,1.86-.13,14.41,14.41,0,0,0,5.71-2.6,19.56,19.56,0,0,0,5.33-5.34l.62-1.12c.25-.12.38-.49.5-.74l.5-1a19.89,19.89,0,0,0,1.73-8.69c0-.5.13-.87.13-1.49V43.17l-.25-3.23a27.24,27.24,0,0,0-2.61-10.3v.12l-1.36-2.85c-1.86-3.47-6.7-5.71-11.05-7.07Z"/><path class="cls-1" d="M255.58,108.69a57.92,57.92,0,0,1-9.43.62,37.19,37.19,0,0,0-5.34.13c-2.23.12-4.22.37-5.95-.13h-.62c-1.37-.25-1.37-.74-1.62-2.23a29.9,29.9,0,0,1-.12-5.83v-.87l-.25-10.55c-.12-2.86-.12-6.08,0-7.94,0-.87.12-2.36.12-3.6,0-.75-.12-1.74-.12-2.86a49,49,0,0,1,0-6c0-3-.12-9.06-.12-12.29V46.89c-.25-4.34-.25-8.69-.25-12.78,0-2.24-.13-4.35-.13-6.7a35.85,35.85,0,0,1,.75-10.3c.49-.75.87-1.12,1.61-1.12,1.49-.12,3.48-.25,5-.25,2.48,0,5.08.13,7.57.25s4.71.25,6.95.25c1,0,2.73.37,2.48,2.6C256,20,255,20,254,20.33l-11.67-.49-5.83.37c.12,2.85-.25,5.34-.37,7.82-.13,1.61-.25,3-.25,4.71,0,.38-.13.75-.13,1.12v1c.5,7.32.75,16.63.75,23.83v.37c2.48,0,5.83,0,8.81-.12,2.36,0,4.34-.13,5.09-.13,2.23,0,2.23,3.48.37,4.1-1.61,0-5.71-.12-7.45-.25l-4.83.5h-1.87V68c0,3,0,6.08-.12,8.06v1.37c0,2.23-.12,3.35-.12,4.34a31.31,31.31,0,0,0-.13,4v.62c.25,4.22.25,8.82.25,11.79,0,1.49,0,3.35-.12,4.72V105c.37,0,1,.12,1.48.12,3.36,0,10.18.13,13.66.13l2.85-.13h.5a1.88,1.88,0,0,1,1.24,3.35Z"/><path class="cls-1" d="M317,17.85c0,1.49,0,3.72.12,4.59,0,1.12.13,2.48.13,4s-.13,3.23-.13,4.72c0,2-.12,4.09-.12,5.83V47.88c0,2.73.25,5.71.37,8.94.25,3.6.5,7.82.5,11.17,0,2,.12,4.22.25,6.33.12,3,.25,6,.25,8.93,0,6.58-.38,12.66-2.86,18.86-.87,2-2.73,4.72-4.84,5.84a12.44,12.44,0,0,1-5.71,1.61,11,11,0,0,1-5.83-2l.12.13a14,14,0,0,1-2.6-2.73,20.89,20.89,0,0,1-3.23-7.57A71.86,71.86,0,0,1,291.82,82c0-1.24-.13-2.36-.13-3.47,0-1.87-.12-3.85,0-5.46s0-3.11,0-4.72c0-1-.12-2.11-.12-3.1a10.7,10.7,0,0,0-.37-3.35c-.13-.87-.38-2.36-.38-3-.12-1.49-.12-3.6-.12-5l.25-3.72V39.44c0-2.23,0-4.22.12-6.45.25-4.84.38-10.3.38-15,.12-1.87.86-2.36,2.35-2.11A2.11,2.11,0,0,1,295.17,17a2.45,2.45,0,0,1,.25,1.37l-.13,9.06c.13,1.49.13,4.09.13,5.71v6.94c0,.87-.13,1.74-.13,2.61-.12,1.74-.25,3.35-.25,5.09,0,2.23,0,4.22.13,6.45v6.7a35.76,35.76,0,0,0,.25,3.6,29.74,29.74,0,0,1,.12,4.59,31.16,31.16,0,0,0,.25,3.35c.12,1.12.25,2.61.25,3.48,0,.37-.13.87-.13,1.24v1.61A3.28,3.28,0,0,0,296,79.9c0,.5.12,1.24.12,1.61a96.26,96.26,0,0,0,.75,11.79c0,.5.12.87.12,1.12l.5,1.61a6.57,6.57,0,0,1,.24,1.62c0,.25.13,0,.13.25l.5,1.86a11.14,11.14,0,0,0,3.47,4.59,12,12,0,0,0,3,.62h.49a4.45,4.45,0,0,0,3.11-.75l-.25.13.62-.37,2.48-2.49c1.37-2.85,2.61-7.57,2.61-15.14l.25-3.35v-.49c0-.25.12-.75.12-1.24,0-1-.12-1.74-.12-2.61-.13-1.74-.25-4-.25-5.58l-.13-4.1c0-1.24-.24-2.85-.37-4.1a20.85,20.85,0,0,1-.25-2.85V57.94c0-.38.13-.75.13-1.25a8.59,8.59,0,0,0,0-2.48C313,51.85,313,49,313,46.39s0-5.46.12-8.31C313,36.47,313,33.86,313,32s0-3.1.12-4.59V22.19c0-1.48-.12-3-.12-4.09C313,15.24,316.51,15.24,317,17.85Z"/><path class="cls-1" d="M329.92,15.24a38.53,38.53,0,0,1,5.83.87l1,.38A12.8,12.8,0,0,1,341,18.35c8.69,3.47,12.16,23,11.29,29l-.37,2.73a27.35,27.35,0,0,1-1.74,6.82c-3.35,7.08-4,7.45-8.06,10.18a15.46,15.46,0,0,0-3,1.86,14.21,14.21,0,0,1-6.33,1.61c-.62,0-.12-.12-.87,0,.13,4.35.13,14.4.13,15.52,0,.49,0,2.48-.13,3.84-.12,3.23-.37,7.32-.25,8.44a19.56,19.56,0,0,1,.13,4.59c0,.62-.13,1.49-.13,2.24v1.11c0,.87.25,1.74-.24,2.24-.38.87-1.25.74-2.24.74s-1.61-1.36-1.61-2.85l.25-10.55v-14c.12-1.12.12-2.73.12-4.22a37.42,37.42,0,0,0-.25-5.59v-6l-.25-4.47.13-2.36c-.25-2.23-.37-6.7-.37-8.69s-.25-6.57-.25-9.92c0-2.24.12-4.6.25-6.09,0-2.11.24-5.33.24-7.44a9.09,9.09,0,0,0-.12-1.74,35.41,35.41,0,0,1-.12-5.21V18.6a7.62,7.62,0,0,1,.12-1.37C327.43,15.37,328.68,15.12,329.92,15.24Zm1.36,4.47v4.35a55.39,55.39,0,0,1,0,6.57c0,1-.12,3-.12,3.85,0,2.11.12,3.48.12,4.72,0,2,0,3.84-.12,7.32l.37,12.66c.12,1.61.12,3.47.12,5,0,1,.13,1.12.13,2.36a8.4,8.4,0,0,0,1.86-.13,14.41,14.41,0,0,0,5.71-2.6,19.41,19.41,0,0,0,5.33-5.34l.62-1.12c.25-.12.38-.49.5-.74l.5-1A19.88,19.88,0,0,0,348,46.89c0-.5.12-.87.12-1.49V43.17l-.25-3.23a27.24,27.24,0,0,0-2.61-10.3v.12l-1.36-2.85c-1.86-3.47-6.7-5.71-11-7.07Z"/><path class="cls-1" d="M365.41,104.84a2.7,2.7,0,0,0,.12.63,1.69,1.69,0,0,1,.13,1.73c-.13,1-.75,1.49-1.74,2.24a9.06,9.06,0,0,0-1.24-.13h-.62a3.45,3.45,0,0,1-2.11-2.23s1-3.35,2.61-3.6S365.29,103.73,365.41,104.84Zm-.74-87.11c.37,6.08.49,11.66.49,17,0,4.59-.12,8.93-.25,13.4s-.24,9.93-.24,14.4c0,1.73.12,3.47.24,5.21a55,55,0,0,1,.13,6.45v7.7c0,2.6-.13,5.46-.13,8.06-.49,2.61-3.84,2.36-3.84-.25s.12-5.33.12-7.94V74.07a30.9,30.9,0,0,0-.25-6c-.12-1.86-.12-3.85-.12-5.71.25-5.09.25-10.17.25-15.26q0-11.36-.38-22.71a27.77,27.77,0,0,1,.13-3.35v-3C360.82,15.24,364.17,15.12,364.67,17.73Z"/><path class="cls-1" d="M366.37,124.82c-19.79,1.39-14.31.31-34.12,1.25s-39.64,1.67-59.46,2.08q-14.88.33-29.74.37c-9.91,0-19.82,0-29.73-.3s-19.8-.62-29.67-1.31l-7.39-.6-7.37-.75-7.3-1-7.32-1.22c-9.78-1.8-19.62-3.31-29.51-4.46a291.13,291.13,0,0,0-29.84-2.09c-1.26,0-2.51,0-3.77,0l-1.9,0-.49,0H75.14a2.76,2.76,0,0,0-.63.08,2.38,2.38,0,0,0-1.34.87c-.14.18-.22.34-.25.37l-.12.2-.24.4-.48.8L68.23,126l-3.84,6.38c-1.28,2.11-2.54,4.36-3.73,6.46s-2.51,4.21-3.82,6.32l-1.92,3.12-.11-.15c-.16-.24-.3-.47-.44-.7s-.27-.47-.37-.68l-.42-.85c-.57-1.14-1.17-2.26-1.79-3.36-1.24-2.2-2.49-4.33-3.74-6.48-2.51-4.28-5-8.54-7.38-12.85L38.93,120l-.84-1.64-.21-.41a2.92,2.92,0,0,0-.19-.34,3.34,3.34,0,0,0-.37-.5,2.82,2.82,0,0,0-1.26-.82,2.61,2.61,0,0,0-.59-.14l-.27,0H35c-2.56-.1-5-.14-7.49-.2l-14.86-.33c-1.25,0-2.45-.07-3.62-.14-.52,0-1.08-.12-1.68-.21l-.95-.14-.27,0s0-.07,0-.14A2.07,2.07,0,0,1,6,114.6s0,0,0,0l0-.2-.2-.9c-.12-.59-.23-1.13-.3-1.68s-.14-1.16-.2-1.75C5,107.7,5,105.26,5,102.86l.09-7.44,0-3.72c0-1.2,0-2.44.08-3.67.07-2.47.15-5,.15-7.51L5,65.59a2.76,2.76,0,0,0-.07-.49c0-4.62,0-9.25-.07-13.85V44.06c0-2.39-.05-4.83,0-7.12.15-4.61.7-9.23,2.51-13.08a14.64,14.64,0,0,1,3.68-4.95,17.52,17.52,0,0,1,5.48-3.13,40.78,40.78,0,0,1,11-2.1l1.27-1.75,2.23-3-1.29,0a48.62,48.62,0,0,0-14.87,2.44A26.06,26.06,0,0,0,11.29,13,21,21,0,0,0,8,15.33a19.53,19.53,0,0,0-4.88,6.49A29,29,0,0,0,.8,29.29a52,52,0,0,0-.73,7.5C0,39.3,0,41.66,0,44.07l0,7.2L.1,65.66h0a2.25,2.25,0,0,0,.08.58L.59,80.54c0,2.42,0,4.88-.11,7.37,0,1.25,0,2.49,0,3.77l0,3.72,0,7.44c0,2.55.1,5.08.37,7.66.07.65.15,1.28.24,2s.24,1.36.38,2l.21.91,0,.25c0,.16.09.31.13.43s.16.44.22.58A5.61,5.61,0,0,0,2.75,118a3.94,3.94,0,0,0,1.73,1.24,4.61,4.61,0,0,0,.94.22l.43,0,.9.12c.63.09,1.29.18,2,.23,1.31.07,2.59.08,3.82.11l14.9.18c2.31,0,4.67.05,6.93.12h0l.87,1.65,1.81,3.31c2.45,4.36,5,8.62,7.57,12.87,1.27,2.12,2.56,4.26,3.77,6.37.61,1.06,1.19,2.12,1.74,3.19l.41.82c.17.34.35.64.53.95s.37.58.56.86l.28.41.2.26.23.27a6.4,6.4,0,0,0,1,.87l.18.13.15.1a2.6,2.6,0,0,0,.68.3,2.46,2.46,0,0,0,1.84-.17,3,3,0,0,0,1-.78l.34-.45c.21-.29.42-.6.6-.91L60,147.1c1.29-2.12,2.59-4.25,3.83-6.44s2.39-4.32,3.65-6.45l3.79-6.4,3.8-6.4.61-1h.64l3.72,0,7.44-.06h1.25l.23,0,.44,0,1.82-.06c1.22,0,2.45,0,3.68,0A292.18,292.18,0,0,1,124.42,122c9.82,1.06,19.61,2.49,29.35,4.2l7.37,1.18,7.46.9,7.44.7,7.44.54c9.93.62,19.86.92,29.8,1.09s19.86.12,29.78,0,19.85-.37,29.77-.69c19.84-.62,39.67-1.57,59.48-2.71s14.31-.28,34.09-1.88a.24.24,0,0,0,.22-.25A.24.24,0,0,0,366.37,124.82ZM5.93,115Zm48.32,34.25,0,0Zm1.42-.14h0S55.7,149.12,55.67,149.1Z"/><path class="cls-1" d="M35.94,13l.08.36,1.15-.07,7.18-.45,3.59-.22.9-.05.23,0h.54l1.8,0,7.2.09c4.75,0,9.58.18,14.37.26s9.62.13,14.33.37c1.18.05,2.36.13,3.52.22l3.6.29,3.58.29,1.8.14.9.07h0L101,15c.11.27.2.52.29.78s.16.47.24.77c.31,1.1.56,2.22.77,3.36a67.39,67.39,0,0,1,.87,7l.5,7.18.41,7.16.4,7.17.28,7.19c.18,4.79.44,9.6.56,14.37s.11,9.58,0,14.37-.22,9.58-.61,14.36a.23.23,0,0,0,.2.25.22.22,0,0,0,.26-.2c.6-4.77,1-9.57,1.23-14.37s.42-9.61.47-14.42,0-9.6,0-14.41l-.08-7.2-.21-7.21-.24-7.22L106,26.73a73,73,0,0,0-.72-7.33q-.29-1.83-.75-3.66a8.88,8.88,0,0,0-.27-1c-.1-.31-.21-.62-.31-.91l-.32-.85-.15-.4-.06-.17a3,3,0,0,0-.19-.36,2.22,2.22,0,0,0-.63-.63,2.58,2.58,0,0,0-.72-.3l-.29-.05h-.13l-.45,0-.9-.09-1.79-.19-3.58-.37L91.18,10c-1.23-.14-2.44-.24-3.65-.33-4.88-.32-9.65-.39-14.45-.58s-9.57-.35-14.41-.47l-7.19-.2-1.8,0-.45,0h-.58l-.9,0-3.6.11-4,.13Zm64.55.76h0S100.48,13.7,100.49,13.72Zm0,0v0S100.48,13.69,100.48,13.71Z"/><path class="cls-1" d="M20.26,57.28V53.77l-.69.34c-1.83,1-3.66,1.93-5.5,2.88-1.3.67-2.3,0-2.31-1.46,0-2.82,0-5.63,0-8.45a1.75,1.75,0,0,1,1.06-1.74c2.3-1.18,4.57-2.41,6.87-3.57a1,1,0,0,0,.63-1.09c0-5.76,0-11.52,0-17.28,0-1.48.46-2,1.86-2q6.69,0,13.38,0c1.4,0,1.86.49,1.87,2v9l.92-.46c4.57-2.4,9.15-4.78,13.71-7.2a2.09,2.09,0,0,1,2.08,0q21,10.27,42,20.51a1.93,1.93,0,0,1,1.2,2c0,2.73,0,5.47,0,8.2,0,1.58-1,2.2-2.31,1.55l-3.1-1.51s-.1,0-.26,0v2.73c0,1.58-.44,2-2,2h-.87v6c.45,0,.87,0,1.3,0a1.42,1.42,0,0,1,1.51,1.52q0,4.41,0,8.84A1.48,1.48,0,0,1,90,78.2c-.4,0-.8,0-1.25,0v6c.37,0,.73,0,1.1,0,1.17,0,1.71.58,1.71,1.82q0,4.19,0,8.36c0,1.22-.52,1.75-1.67,1.77H88.79v3h1.27a1.46,1.46,0,0,1,1.52,1.52c0,1,0,1.92,0,2.87a1.47,1.47,0,0,1-1.48,1.58c-.15,0-.3,0-.45,0H19.1c-1.14,0-1.66-.58-1.66-1.79,0-2.79,0-5.57,0-8.36,0-1.25.52-1.78,1.73-1.8h1.09v-6H19a1.46,1.46,0,0,1-1.56-1.56c0-3,0-5.89,0-8.84a1.43,1.43,0,0,1,1.49-1.54c.43,0,.85,0,1.32,0v-6H19.08a1.51,1.51,0,0,1-1.64-1.73q0-4.26,0-8.52A1.49,1.49,0,0,1,19,57.28Zm74.16-3.85c0-1.69,0-3.25,0-4.81a1.11,1.11,0,0,0-.72-1.2q-20-9.73-39.95-19.53a1.29,1.29,0,0,0-1.33,0q-9.25,4.87-18.53,9.72T15.24,47.4a1,1,0,0,0-.65,1.09c0,.92,0,1.86,0,2.78v2.08l1-.52Q33.7,43.37,51.75,33.89a2.61,2.61,0,0,1,2.63,0Q73.93,43.46,93.51,53ZM60.28,66.29V99H74.41V87.15H73.18a1.46,1.46,0,0,1-1.55-1.49,1.48,1.48,0,0,1,1.53-1.51c.42,0,.84,0,1.24,0V66.29ZM30,63.22h49a13.9,13.9,0,0,1-1.24-2.17,1.07,1.07,0,0,0-1.22-.81q-22.08,0-44.16,0a2.4,2.4,0,0,0-.6,0,.69.69,0,0,0-.4.28C31,61.43,30.5,62.33,30,63.22Zm4.59,3.08v8.86H48.76V66.3Zm22.7,23.84v-3H39.4c-2.43,0-4.86,0-7.29,0-.23,0-.56.06-.65.22-.52.91-1,1.86-1.45,2.76Zm0,6H51.78c-6.51,0-13,0-19.53,0-.27,0-.68.06-.79.25-.52.88-1,1.81-1.41,2.7H57.33ZM23.23,37.88v2c3.72-2,7.36-3.85,11-5.78.18-.09.27-.34.55-.73-.7,0-1.15,0-1.59,0a1.44,1.44,0,0,1-1.47-1.57c0-.93,0-1.86,0-2.78a1.46,1.46,0,0,1,1.58-1.61H34.5V24.47H28.84v3.21c0,2.55-.17,2.73-2.64,2.73h-3v3h1.17c2.36,0,2.67.34,2.59,2.81a1.52,1.52,0,0,1-1.62,1.68Zm29.83,1.68c-.8.42-1.48.8-2.19,1.12a1,1,0,0,0-.64,1.08c0,3.9,0,7.8,0,11.69,0,.26,0,.52,0,.81h2.78ZM34.62,78.25v2.86H48.77V78.25ZM56,40.92V54.26H58.7a1.22,1.22,0,0,0,.07-.2c0-3.8,0-7.59,0-11.39a.74.74,0,0,0-.3-.54C57.68,41.71,56.87,41.35,56,40.92ZM47.33,54.26V42.56c-.81.42-1.54.83-2.3,1.18a.85.85,0,0,0-.51.93c0,3,0,5.95,0,8.92,0,.23,0,.45,0,.67Zm17.07,0a1,1,0,0,0,.09-.25c0-2.86,0-5.73,0-8.59,0-.16-.08-.41-.2-.46-.84-.44-1.7-.84-2.58-1.26V54.31H64A2.09,2.09,0,0,0,64.4,54.26ZM80.18,94.61a2.84,2.84,0,1,0,2.83-3A2.9,2.9,0,0,0,80.18,94.61Zm0-27a2.84,2.84,0,1,0,2.91-2.91A2.92,2.92,0,0,0,80.19,67.65ZM28.84,58.76a2.84,2.84,0,1,0-2.83,3A2.92,2.92,0,0,0,28.84,58.76Zm0,9a2.84,2.84,0,1,0-2.85,3A2.93,2.93,0,0,0,28.84,67.75Zm0,26.89a2.84,2.84,0,1,0-2.86,3A2.92,2.92,0,0,0,28.84,94.64ZM26,73.73a3,3,0,1,0,2.85,3A2.86,2.86,0,0,0,26,73.73Zm2.85,11.94a2.84,2.84,0,1,0-2.85,3A2.88,2.88,0,0,0,28.84,85.67Zm57,0a2.84,2.84,0,1,0-2.85,3A2.88,2.88,0,0,0,85.86,85.66Zm-5.68-9a2.84,2.84,0,1,0,2.87-2.94A2.88,2.88,0,0,0,80.18,76.65Zm5.67-17.91a2.83,2.83,0,1,0-2.8,3A2.91,2.91,0,0,0,85.85,58.74ZM41.63,54.27V45.55c-.78.4-1.47.8-2.19,1.12a.94.94,0,0,0-.61,1c0,2,0,3.93,0,5.89,0,.23,0,.46.06.69Zm28.55,0c0-2.11,0-4.17,0-6.23a.44.44,0,0,0-.16-.33c-.85-.43-1.71-.84-2.61-1.28v7.84ZM51.69,81.12h5.63V78.26H51.69Zm5.65-11.84H51.7v2.87h5.64ZM35.94,48.52,33.32,49.9a.44.44,0,0,0-.18.32c0,1.34,0,2.68,0,4h2.81Zm40,5.75c0-1.18,0-2.29,0-3.39a.6.6,0,0,0-.23-.44c-.83-.42-1.67-.82-2.56-1.25v5.08ZM26,24.47H23.23v2.88H26ZM88.65,75.09V69.37L87,72.21Zm-68.3,9,1.71-2.89-1.71-2.91Zm68.32,9V87.23L87,90.13ZM20.35,60.35v5.81l1.71-2.91Zm9.94-8.87-2.72,1.43,2.08,1.3c.38.23.63.19.64-.34Zm48.45.44c0,.76,0,1.34,0,1.92s.27.6.67.34l1.7-1.12Zm.32,38.21-1.69-2.91v2.91ZM22,99.06l-1.68-2.9v2.9Zm55.36-2.89V99H79Zm0-26.84V72.2h1.68Zm-45.7-.06L30,72.17h1.7Zm0,11.88V78.26L30,81.15Zm45.7-2.89v2.91h1.71Z"/><path class="cls-1" d="M67.28,78.2c-.88,0-1.77,0-2.65,0a1.49,1.49,0,0,1-1.57-1.64q0-2.86,0-5.73a1.42,1.42,0,0,1,1.52-1.59q2.78,0,5.55,0a1.4,1.4,0,0,1,1.48,1.54c0,1.94,0,3.87,0,5.81A1.46,1.46,0,0,1,70,78.2C69.11,78.22,68.2,78.2,67.28,78.2Zm1.43-3V72.27H66v2.89Z"/><path class="cls-1" d="M26.19,20.68a1.9,1.9,0,0,1-1.82-1.33c-.08-.25-1.92-6.32,3-10.35a28.9,28.9,0,0,0,6.19-8,1.91,1.91,0,0,1,3.4,1.74A32.84,32.84,0,0,1,29.77,12C26.89,14.32,28,18.06,28,18.22a1.92,1.92,0,0,1-1.27,2.38A2.16,2.16,0,0,1,26.19,20.68Z"/><path class="cls-1" d="M36.46,14.42a1.26,1.26,0,0,1-1.05-1.16A6,6,0,0,1,38.08,8a17.46,17.46,0,0,0,3.86-3.71A1.28,1.28,0,0,1,44,5.77a20.34,20.34,0,0,1-4.54,4.34,3.51,3.51,0,0,0-1.5,3,1.27,1.27,0,0,1-1.18,1.36A1.08,1.08,0,0,1,36.46,14.42Z"/></g></g></svg>