<svg xmlns="http://www.w3.org/2000/svg" width="43" height="43" viewBox="0 0 43 43">
  <path id="Icon_awesome-instagram" data-name="Icon awesome-instagram" d="M21.5,12.713A11.025,11.025,0,1,0,32.522,23.738,11.006,11.006,0,0,0,21.5,12.713Zm0,18.192a7.167,7.167,0,1,1,7.166-7.167A7.18,7.18,0,0,1,21.5,30.905ZM35.543,12.262a2.571,2.571,0,1,1-2.571-2.571A2.565,2.565,0,0,1,35.543,12.262Zm7.3,2.61c-.163-3.445-.95-6.5-3.473-9.01s-5.564-3.3-9.008-3.473c-3.549-.2-14.188-.2-17.737,0-3.434.163-6.485.95-9.008,3.464s-3.3,5.565-3.473,9.01c-.2,3.55-.2,14.191,0,17.741.163,3.445.95,6.5,3.473,9.01s5.564,3.3,9.008,3.473c3.549.2,14.188.2,17.737,0,3.444-.163,6.494-.95,9.008-3.473s3.3-5.565,3.473-9.01c.2-3.55.2-14.181,0-17.732ZM38.258,36.413A7.256,7.256,0,0,1,34.172,40.5c-2.83,1.123-9.545.864-12.672.864s-9.852.249-12.672-.864a7.256,7.256,0,0,1-4.087-4.087c-1.122-2.831-.863-9.547-.863-12.675s-.249-9.854.863-12.675A7.256,7.256,0,0,1,8.827,6.975c2.83-1.123,9.545-.864,12.672-.864s9.852-.249,12.672.864a7.256,7.256,0,0,1,4.087,4.087c1.122,2.831.863,9.547.863,12.675S39.381,33.592,38.258,36.413Z" transform="translate(0.005 -2.238)" fill="#fff"/>
</svg>
