<svg xmlns="http://www.w3.org/2000/svg" width="43" height="43" viewBox="0 0 43 43">
  <path id="Icon_awesome-linkedin" data-name="Icon awesome-linkedin" d="M39.929,2.25H3.062A3.085,3.085,0,0,0,0,5.35v36.8a3.085,3.085,0,0,0,3.062,3.1H39.929A3.093,3.093,0,0,0,43,42.15V5.35A3.093,3.093,0,0,0,39.929,2.25ZM13,39.107H6.623V18.586h6.383V39.107ZM9.809,15.783a3.7,3.7,0,1,1,3.7-3.7,3.7,3.7,0,0,1-3.7,3.7ZM36.886,39.107H30.513V29.125c0-2.38-.048-5.442-3.311-5.442-3.321,0-3.83,2.592-3.83,5.269V39.107H17V18.586h6.114v2.8H23.2a6.713,6.713,0,0,1,6.037-3.311c6.45,0,7.65,4.252,7.65,9.781Z" transform="translate(0 -2.25)" fill="#fff"/>
</svg>
